<mxfile host="Electron" agent="Mozilla/5.0 (Windows NT 10.0; Win64; x64) AppleWebKit/537.36 (KHTML, like Gecko) draw.io/24.7.17 Chrome/128.0.6613.36 Electron/32.0.1 Safari/537.36" version="24.7.17">
  <diagram name="Page-1" id="_SRYAlOrRq-1KoIxUSUO">
    <mxGraphModel dx="1322" dy="684" grid="1" gridSize="10" guides="1" tooltips="1" connect="1" arrows="1" fold="1" page="1" pageScale="1" pageWidth="850" pageHeight="1100" math="0" shadow="0">
      <root>
        <mxCell id="0" />
        <mxCell id="1" parent="0" />
        <mxCell id="70aTXJ7ExeY2D5MZJxcS-1" value="Category" style="rounded=1;arcSize=10;whiteSpace=wrap;html=1;align=center;" vertex="1" parent="1">
          <mxGeometry x="375" y="350" width="100" height="40" as="geometry" />
        </mxCell>
        <mxCell id="70aTXJ7ExeY2D5MZJxcS-2" value="Title" style="ellipse;whiteSpace=wrap;html=1;align=center;" vertex="1" parent="1">
          <mxGeometry x="260" y="260" width="100" height="40" as="geometry" />
        </mxCell>
        <mxCell id="70aTXJ7ExeY2D5MZJxcS-3" value="Content" style="ellipse;whiteSpace=wrap;html=1;align=center;" vertex="1" parent="1">
          <mxGeometry x="490" y="260" width="100" height="40" as="geometry" />
        </mxCell>
        <mxCell id="70aTXJ7ExeY2D5MZJxcS-5" value="Course" style="ellipse;shape=doubleEllipse;margin=3;whiteSpace=wrap;html=1;align=center;" vertex="1" parent="1">
          <mxGeometry x="375" y="260" width="100" height="40" as="geometry" />
        </mxCell>
        <mxCell id="70aTXJ7ExeY2D5MZJxcS-6" value="" style="endArrow=none;html=1;rounded=0;" edge="1" parent="1" source="70aTXJ7ExeY2D5MZJxcS-2" target="70aTXJ7ExeY2D5MZJxcS-1">
          <mxGeometry relative="1" as="geometry">
            <mxPoint x="360" y="360" as="sourcePoint" />
            <mxPoint x="520" y="360" as="targetPoint" />
          </mxGeometry>
        </mxCell>
        <mxCell id="70aTXJ7ExeY2D5MZJxcS-7" value="" style="endArrow=none;html=1;rounded=0;" edge="1" parent="1" source="70aTXJ7ExeY2D5MZJxcS-5" target="70aTXJ7ExeY2D5MZJxcS-1">
          <mxGeometry relative="1" as="geometry">
            <mxPoint x="343" y="308" as="sourcePoint" />
            <mxPoint x="409" y="360" as="targetPoint" />
          </mxGeometry>
        </mxCell>
        <mxCell id="70aTXJ7ExeY2D5MZJxcS-8" value="" style="endArrow=none;html=1;rounded=0;" edge="1" parent="1" source="70aTXJ7ExeY2D5MZJxcS-3" target="70aTXJ7ExeY2D5MZJxcS-1">
          <mxGeometry relative="1" as="geometry">
            <mxPoint x="435" y="310" as="sourcePoint" />
            <mxPoint x="435" y="360" as="targetPoint" />
          </mxGeometry>
        </mxCell>
      </root>
    </mxGraphModel>
  </diagram>
</mxfile>
